<svg xmlns="http://www.w3.org/2000/svg" xmlns:xlink="http://www.w3.org/1999/xlink" width="800" zoomAndPan="magnify" viewBox="0 0 600 449.999984" height="600" preserveAspectRatio="xMidYMid meet" version="1.0"><defs><g/><clipPath id="f5a3a30f91"><path d="M 103.316406 136.738281 L 495 136.738281 L 495 312.988281 L 103.316406 312.988281 Z M 103.316406 136.738281 " clip-rule="nonzero"/></clipPath></defs><g clip-path="url(#f5a3a30f91)"><path fill="#000000" d="M 103.785156 222.109375 C 107.164062 204.347656 120.515625 188.921875 134.414062 178.101562 C 178.898438 143.878906 246.429688 136.773438 301.050781 136.808594 C 359.109375 136.78125 440.355469 147.523438 480.324219 193.757812 C 489.566406 204.726562 496.332031 219.019531 494.207031 233.734375 C 493.199219 241.886719 490.226562 249.769531 485.769531 256.648438 C 455.074219 303.03125 368.300781 311 316.976562 312.023438 C 258.507812 312.964844 182.898438 305.105469 137.007812 265.59375 C 127.910156 257.269531 119.390625 246.179688 119.242188 233.207031 C 119.199219 225.703125 120.769531 217.269531 125.257812 211.074219 C 127.890625 207.882812 132.535156 211.421875 130.285156 214.777344 C 126.808594 219.851562 125.734375 226.960938 125.875 233.027344 C 126.261719 244.019531 133.949219 253.101562 141.832031 260.261719 C 162.804688 278.304688 189.773438 287.75 216.351562 294.222656 C 250.347656 302.144531 285.464844 304.277344 320.324219 303.390625 C 368.328125 302.195312 450.175781 295.113281 479.269531 252.453125 C 483.148438 246.539062 485.75 239.800781 486.65625 232.785156 C 488.566406 220.246094 482.53125 207.984375 474.632812 198.472656 C 426.085938 142.199219 310.808594 138.34375 241.59375 146.15625 C 226.699219 148.003906 211.511719 150.636719 197.042969 154.652344 C 172.664062 161.328125 148.511719 171.660156 129.804688 188.972656 C 128.167969 190.464844 126.480469 192.210938 124.941406 193.816406 C 124.941406 193.816406 122.675781 196.378906 122.675781 196.378906 L 122.109375 197.019531 L 121.578125 197.6875 C 118.371094 201.648438 115.425781 205.898438 113.136719 210.414062 C 111.085938 214.445312 109.5 218.703125 108.699219 223.015625 C 108.042969 226.167969 103.320312 225.441406 103.785156 222.109375 " fill-opacity="1" fill-rule="nonzero"/></g><g fill="#000000" fill-opacity="1"><g transform="translate(182.083244, 241.285821)"><g><path d="M 10.597656 3.144531 C 30.574219 3.144531 23.324219 -24.539062 31.585938 -33.460938 C 32.804688 -34.78125 30.976562 -35.492188 29.609375 -35.035156 C 18.101562 -31.078125 20.839844 -0.457031 9.683594 -0.457031 C 6.488281 -0.457031 4.003906 -2.738281 4.003906 -6.996094 C 4.003906 -11.964844 7.503906 -14.042969 10.800781 -14.042969 C 13.234375 -14.042969 11.253906 -16.679688 8.46875 -16.679688 C 4.613281 -16.679688 0.609375 -13.03125 0.609375 -7.65625 C 0.609375 -0.863281 5.628906 3.144531 10.597656 3.144531 Z M 0 -36.605469 C 0.0507812 -31.433594 4.410156 -27.582031 9.683594 -27.683594 C 12.675781 -27.734375 14.5 -30.777344 11.761719 -30.777344 C 6.792969 -30.777344 4.410156 -33.007812 4.410156 -36.25 C 4.410156 -40.003906 7.097656 -42.691406 12.269531 -42.691406 C 20.382812 -42.691406 28.039062 -36.046875 35.59375 -36.046875 C 40.511719 -36.046875 44.871094 -37.722656 44.871094 -42.589844 C 44.871094 -44.617188 42.84375 -46.441406 42.84375 -44.71875 C 42.84375 -42.640625 39.800781 -41.421875 36.148438 -41.421875 C 27.480469 -41.421875 19.011719 -45.734375 11.964844 -45.734375 C 4.613281 -45.734375 -0.0507812 -41.929688 0 -36.605469 Z M 0 -36.605469 "/></g></g></g><g fill="#000000" fill-opacity="1"><g transform="translate(214.782026, 241.285821)"><g><path d="M 7.859375 0 C 12.980469 0 15.820312 -5.425781 16.679688 -9.9375 C 20.839844 -10.140625 23.878906 -13.488281 24.386719 -16.222656 C 24.894531 -18.910156 23.171875 -20.28125 21.902344 -17.492188 C 20.433594 -14.195312 18.152344 -13.4375 16.984375 -13.4375 C 16.984375 -17.085938 15.871094 -20.078125 13.082031 -20.078125 C 11.558594 -20.078125 10.292969 -18.605469 10.292969 -16.222656 C 10.292969 -14.195312 11.203125 -12.167969 13.03125 -10.953125 C 12.675781 -7.503906 10.496094 -3.550781 8.417969 -3.550781 C 6.945312 -3.550781 5.832031 -5.578125 5.832031 -8.71875 C 5.832031 -13.132812 7.554688 -18.558594 12.371094 -21.089844 C 14.09375 -22.003906 13.132812 -23.777344 11.355469 -23.777344 C 5.324219 -23.777344 -0.507812 -17.1875 -0.507812 -9.53125 C -0.507812 -3.195312 3.246094 0 7.859375 0 Z M 7.859375 0 "/></g></g></g><g fill="#000000" fill-opacity="1"><g transform="translate(234.70547, 241.285821)"><g/></g></g><g fill="#000000" fill-opacity="1"><g transform="translate(249.914201, 241.285821)"><g><path d="M 7.351562 3.042969 C 11.761719 3.042969 14.90625 1.21875 17.136719 -1.671875 C 19.46875 -0.710938 22.257812 0.0507812 25.757812 0.0507812 C 36.65625 0.0507812 44.515625 -9.480469 44.515625 -22.105469 C 44.515625 -34.171875 36.503906 -45.632812 22.613281 -45.632812 C 11.8125 -45.632812 0.609375 -37.671875 0.609375 -27.886719 C 0.609375 -24.894531 2.839844 -21.242188 6.894531 -21.242188 C 9.378906 -21.242188 10.34375 -23.070312 9.378906 -23.070312 C 6.589844 -23.070312 5.222656 -24.792969 5.222656 -28.242188 C 5.222656 -34.324219 11.355469 -42.691406 23.222656 -42.691406 C 32.5 -42.691406 37.316406 -34.171875 37.316406 -25.300781 C 37.316406 -11.609375 30.777344 -3.5 24.03125 -3.5 C 22.257812 -3.5 20.585938 -3.902344 18.960938 -4.460938 C 24.285156 -14.550781 23.777344 -31.789062 30.015625 -36.707031 C 31.433594 -37.824219 29.40625 -38.734375 28.039062 -38.28125 C 18.960938 -35.238281 17.085938 -17.136719 12.878906 -7.148438 C 10.851562 -8.011719 8.871094 -8.667969 6.84375 -8.667969 C 2.992188 -8.667969 0 -6.136719 0 -2.839844 C 0 0.710938 2.992188 3.042969 7.351562 3.042969 Z M 3.398438 -2.890625 C 3.398438 -4.511719 5.070312 -5.730469 6.589844 -5.730469 C 8.316406 -5.730469 9.886719 -5.171875 11.507812 -4.410156 C 10.140625 -2.027344 8.46875 -0.507812 6.234375 -0.507812 C 4.714844 -0.507812 3.398438 -1.21875 3.398438 -2.890625 Z M 3.398438 -2.890625 "/></g></g></g><g fill="#000000" fill-opacity="1"><g transform="translate(296.959908, 241.285821)"><g><path d="M 7.859375 0 C 12.980469 0 15.820312 -5.425781 16.679688 -9.9375 C 20.839844 -10.140625 23.878906 -13.488281 24.386719 -16.222656 C 24.894531 -18.910156 23.171875 -20.28125 21.902344 -17.492188 C 20.433594 -14.195312 18.152344 -13.4375 16.984375 -13.4375 C 16.984375 -17.085938 15.871094 -20.078125 13.082031 -20.078125 C 11.558594 -20.078125 10.292969 -18.605469 10.292969 -16.222656 C 10.292969 -14.195312 11.203125 -12.167969 13.03125 -10.953125 C 12.675781 -7.503906 10.496094 -3.550781 8.417969 -3.550781 C 6.945312 -3.550781 5.832031 -5.578125 5.832031 -8.71875 C 5.832031 -13.132812 7.554688 -18.558594 12.371094 -21.089844 C 14.09375 -22.003906 13.132812 -23.777344 11.355469 -23.777344 C 5.324219 -23.777344 -0.507812 -17.1875 -0.507812 -9.53125 C -0.507812 -3.195312 3.246094 0 7.859375 0 Z M 7.859375 0 "/></g></g></g><g fill="#000000" fill-opacity="1"><g transform="translate(316.883352, 241.285821)"><g/></g></g><g fill="#000000" fill-opacity="1"><g transform="translate(332.092083, 241.285821)"><g><path d="M 41.21875 9.683594 C 45.582031 9.683594 49.382812 7.148438 49.382812 3.449219 C 49.382812 -0.101562 47.761719 -0.914062 47.761719 0.40625 C 47.761719 2.382812 44.566406 3.195312 41.980469 3.195312 C 35.894531 3.195312 28.898438 -1.316406 22.207031 -5.324219 C 25.453125 -10.445312 27.277344 -17.339844 28.796875 -23.726562 C 38.582031 -25.097656 44.515625 -32.347656 44.515625 -38.332031 C 44.515625 -42.386719 41.625 -45.632812 37.0625 -45.632812 C 29.457031 -45.632812 25.402344 -36.859375 22.105469 -27.023438 C 14.855469 -28.746094 8.921875 -35.894531 8.921875 -43.753906 C 8.921875 -44.414062 8.667969 -44.71875 8.316406 -44.71875 C 7.351562 -44.71875 5.476562 -42.4375 5.476562 -39.039062 C 5.476562 -30.929688 13.589844 -25.503906 21.089844 -23.929688 C 19.367188 -18.507812 17.847656 -13.03125 15.972656 -8.769531 C 12.929688 -10.242188 10.039062 -11.253906 7.402344 -11.253906 C 2.839844 -11.253906 0 -8.316406 0 -4.308594 C 0 0 3.851562 2.992188 7.859375 2.992188 C 13.132812 2.992188 17.035156 0.914062 19.925781 -2.332031 C 26.515625 2.890625 33.210938 9.683594 41.21875 9.683594 Z M 3.246094 -4.410156 C 3.246094 -6.792969 4.917969 -8.316406 7.402344 -8.316406 C 9.886719 -8.316406 12.269531 -7.453125 14.652344 -6.035156 C 12.828125 -2.6875 10.648438 -0.558594 7.808594 -0.558594 C 5.273438 -0.558594 3.246094 -1.824219 3.246094 -4.410156 Z M 29.609375 -27.125 C 31.535156 -35.339844 33.3125 -41.980469 37.671875 -41.980469 C 39.648438 -41.980469 40.914062 -40.410156 40.914062 -38.480469 C 40.914062 -33.460938 36.199219 -28.644531 29.609375 -27.125 Z M 29.609375 -27.125 "/></g></g></g><g fill="#000000" fill-opacity="1"><g transform="translate(368.288871, 241.285821)"><g><path d="M 8.46875 0 C 13.132812 -0.0507812 18 -7.554688 20.890625 -16.222656 C 21.800781 -18.960938 19.519531 -20.078125 18.40625 -17.492188 C 14.449219 -8.214844 12.320312 -3.550781 9.835938 -3.550781 C 8.621094 -3.550781 7.554688 -5.78125 7.605469 -10.242188 C 7.65625 -14.601562 8.367188 -18.050781 9.53125 -20.738281 C 10.699219 -23.425781 4.308594 -23.121094 2.535156 -19.113281 C 1.066406 -15.820312 0.863281 -12.269531 0.914062 -9.226562 C 1.015625 -3.851562 3.550781 0.0507812 8.46875 0 Z M 5.476562 -28.191406 C 5.476562 -26.71875 6.742188 -25.707031 8.265625 -25.707031 C 11.152344 -25.707031 13.789062 -27.378906 13.789062 -30.015625 C 13.789062 -31.535156 12.625 -32.804688 10.800781 -32.855469 C 8.0625 -32.957031 5.476562 -30.828125 5.476562 -28.191406 Z M 5.476562 -28.191406 "/></g></g></g><g fill="#000000" fill-opacity="1"><g transform="translate(384.815691, 241.285821)"><g><path d="M 7.046875 0 C 14.5 0 19.621094 -7.757812 22.410156 -16.222656 C 23.324219 -18.960938 20.941406 -20.128906 19.925781 -17.492188 C 18.40625 -13.488281 17.542969 -11.761719 15.617188 -8.921875 C 15.160156 -15.109375 9.226562 -18 5.171875 -20.28125 C 5.171875 -23.878906 4.054688 -25.554688 1.925781 -25.554688 C 0.863281 -25.554688 -0.609375 -24.488281 -0.609375 -22.308594 C -0.609375 -19.925781 1.167969 -18.304688 2.636719 -17.59375 C 6.996094 -15.566406 8.367188 -12.421875 8.367188 -9.125 C 8.367188 -6.84375 7.402344 -3.550781 5.222656 -3.550781 C 4.105469 -3.550781 3.347656 -4.816406 2.890625 -6.84375 C 2.738281 -7.503906 1.671875 -7.707031 1.671875 -5.121094 C 1.671875 -3.09375 3.144531 0 7.046875 0 Z M 7.046875 0 "/></g></g></g><g fill="#000000" fill-opacity="1"><g transform="translate(402.863383, 241.285821)"><g><path d="M 8.667969 0 C 14.144531 0 16.578125 -7.707031 19.417969 -16.222656 C 20.332031 -18.960938 17.898438 -20.128906 16.933594 -17.492188 C 13.738281 -8.519531 12.015625 -3.550781 10.039062 -3.550781 C 9.074219 -3.550781 7.859375 -5.222656 7.859375 -10.445312 C 7.859375 -15.414062 8.0625 -19.976562 9.9375 -26.058594 C 11.863281 -26.109375 13.6875 -26.109375 15.160156 -26.109375 C 17.949219 -26.109375 18.355469 -28.746094 16.273438 -28.746094 L 10.800781 -28.746094 C 11.304688 -30.21875 11.914062 -31.738281 12.625 -33.363281 C 13.890625 -36.25 7.859375 -35.492188 6.085938 -31.890625 C 5.578125 -30.878906 5.121094 -29.8125 4.714844 -28.746094 L -0.761719 -28.746094 C -1.824219 -28.746094 -2.128906 -28.191406 -2.128906 -27.632812 C -2.128906 -26.871094 -1.117188 -25.960938 0.761719 -25.960938 L 3.703125 -25.960938 C 1.925781 -20.433594 1.21875 -14.90625 1.21875 -11.457031 C 1.21875 -4.207031 4.308594 0 8.667969 0 Z M 8.667969 0 "/></g></g></g></svg>